<svg xmlns="http://www.w3.org/2000/svg" version="1.1" xmlns:xlink="http://www.w3.org/1999/xlink" xmlns:svgjs="http://svgjs.com/svgjs" width="1440" height="560" preserveAspectRatio="none" viewBox="0 0 1440 560">
    <g mask="url(&quot;#SvgjsMask1182&quot;)" fill="none">
        <path d="M 0,389 C 57.6,354 172.8,211 288,214 C 403.2,217 460.8,442.4 576,404 C 691.2,365.6 748.8,14.4 864,22 C 979.2,29.6 1036.8,440 1152,442 C 1267.2,444 1382.4,114 1440,32L1440 560L0 560z" fill="rgba(241, 241, 241, 1)"></path>
        <path d="M 0,20 C 57.6,81.8 172.8,277.4 288,329 C 403.2,380.6 460.8,267.8 576,278 C 691.2,288.2 748.8,417.2 864,380 C 979.2,342.8 1036.8,71.4 1152,92 C 1267.2,112.6 1382.4,404.8 1440,483L1440 560L0 560z" fill="rgba(235, 235, 235, 1)"></path>
    </g>
    <defs>
        <mask id="SvgjsMask1182">
            <rect width="1440" height="560" fill="#ffffff"></rect>
        </mask>
    </defs>
</svg>